<svg id="visual" viewBox="0 0 900 600" width="900" height="600" xmlns="http://www.w3.org/2000/svg" xmlns:xlink="http://www.w3.org/1999/xlink" version="1.1"><rect x="0" y="0" width="900" height="600" fill="#0066FF"></rect><path d="M0 419L21.5 432C43 445 86 471 128.8 478.3C171.7 485.7 214.3 474.3 257.2 458C300 441.7 343 420.3 385.8 406.2C428.7 392 471.3 385 514.2 405.8C557 426.7 600 475.3 642.8 493.8C685.7 512.3 728.3 500.7 771.2 481C814 461.3 857 433.7 878.5 419.8L900 406L900 601L878.5 601C857 601 814 601 771.2 601C728.3 601 685.7 601 642.8 601C600 601 557 601 514.2 601C471.3 601 428.7 601 385.8 601C343 601 300 601 257.2 601C214.3 601 171.7 601 128.8 601C86 601 43 601 21.5 601L0 601Z" fill="#fff" stroke-linecap="round" stroke-linejoin="miter"></path></svg>