<svg xmlns="http://www.w3.org/2000/svg" version="1.1" xmlns:xlink="http://www.w3.org/1999/xlink" xmlns:svgjs="http://svgjs.dev/svgjs" width="1440" height="560" preserveAspectRatio="none" viewBox="0 0 1440 560"><g mask="url(&quot;#SvgjsMask1001&quot;)" fill="none"><rect width="1440" height="560" x="0" y="0" fill="rgba(22, 105, 191, 1)"></rect><path d="M 0,6 C 57.6,46.8 172.8,189 288,210 C 403.2,231 460.8,117.8 576,111 C 691.2,104.2 748.8,179 864,176 C 979.2,173 1036.8,92 1152,96 C 1267.2,100 1382.4,176 1440,196L1440 560L0 560z" fill="#184a7e"></path><path d="M 0,289 C 96,318.4 288,421.6 480,436 C 672,450.4 768,345 960,361 C 1152,377 1344,485 1440,516L1440 560L0 560z" fill="#2264ab"></path></g><defs><mask id="SvgjsMask1001"><rect width="1440" height="560" fill="#ffffff"></rect></mask></defs></svg>